<svg xmlns="http://www.w3.org/2000/svg" width="52" height="52" viewBox="0 0 52 52">
  <rect width="52" height="52" rx="6" fill="#1e3a5f"/>
  <g stroke="#4a90d9" stroke-width="0.5" opacity="0.3">
    <line x1="0" y1="13" x2="52" y2="13"/>
    <line x1="0" y1="26" x2="52" y2="26"/>
    <line x1="0" y1="39" x2="52" y2="39"/>
    <line x1="13" y1="0" x2="13" y2="52"/>
    <line x1="26" y1="0" x2="26" y2="52"/>
    <line x1="39" y1="0" x2="39" y2="52"/>
  </g>
  <rect x="12" y="14" width="20" height="16" rx="2" fill="none" stroke="#7ab8f5" stroke-width="1.5"/>
  <line x1="32" y1="20" x2="40" y2="14" stroke="#7ab8f5" stroke-width="1.5"/>
  <line x1="32" y1="30" x2="40" y2="36" stroke="#7ab8f5" stroke-width="1.5"/>
  <rect x="32" y="14" width="8" height="22" rx="1" fill="none" stroke="#7ab8f5" stroke-width="1.5"/>
  <circle cx="22" cy="22" r="4" fill="none" stroke="#a0cfff" stroke-width="1" stroke-dasharray="2 1.5"/>
  <line x1="15" y1="27" x2="29" y2="27" stroke="#a0cfff" stroke-width="0.8" stroke-dasharray="3 2"/>
  <line x1="12" y1="38" x2="18" y2="38" stroke="#7ab8f5" stroke-width="1"/>
  <line x1="12" y1="38" x2="12" y2="44" stroke="#7ab8f5" stroke-width="1"/>
  <text x="14" y="43" font-family="monospace" font-size="4" fill="#a0cfff">12</text>
</svg>
